<?xml version="1.0" encoding="UTF-8"?>
<svg xmlns="http://www.w3.org/2000/svg" xmlns:xlink="http://www.w3.org/1999/xlink" width="16px" height="16px" viewBox="0 0 16 16" version="1.1">
<g id="surface1">
<path style=" stroke:none;fill-rule:nonzero;fill:rgb(61.960784%,62.352941%,49.803922%);fill-opacity:1;" d="M 10.105469 5.242188 L 13.25 0 L 9.90625 0 L 6.949219 4.929688 C 4.371094 5.421875 2.414062 7.691406 2.414062 10.414062 C 2.414062 13.492188 4.917969 16 8 16 C 11.082031 16 13.585938 13.492188 13.585938 10.414062 C 13.585938 8.078125 12.144531 6.078125 10.105469 5.242188 Z M 8 14.785156 C 5.589844 14.785156 3.628906 12.824219 3.628906 10.414062 C 3.628906 8.003906 5.589844 6.042969 8 6.042969 C 10.410156 6.042969 12.371094 8.003906 12.371094 10.414062 C 12.371094 12.824219 10.410156 14.785156 8 14.785156 Z M 8 14.785156 "/>
<path style=" stroke:none;fill-rule:nonzero;fill:rgb(61.960784%,62.352941%,49.803922%);fill-opacity:1;" d="M 8 6.585938 C 5.886719 6.585938 4.171875 8.300781 4.171875 10.414062 C 4.171875 12.523438 5.886719 14.242188 8 14.242188 C 10.113281 14.242188 11.828125 12.523438 11.828125 10.414062 C 11.828125 8.300781 10.113281 6.585938 8 6.585938 Z M 9.726562 10.984375 L 10.039062 12.820312 C 10.058594 12.925781 10.015625 13.027344 9.933594 13.085938 C 9.886719 13.121094 9.828125 13.140625 9.773438 13.140625 C 9.730469 13.140625 9.6875 13.128906 9.648438 13.109375 L 7.996094 12.242188 L 6.347656 13.109375 C 6.257812 13.15625 6.144531 13.148438 6.0625 13.085938 C 5.980469 13.027344 5.9375 12.925781 5.953125 12.820312 L 6.269531 10.984375 L 4.9375 9.6875 C 4.863281 9.613281 4.835938 9.507812 4.867188 9.40625 C 4.898438 9.308594 4.984375 9.238281 5.085938 9.222656 L 6.929688 8.957031 L 7.753906 7.285156 C 7.84375 7.097656 8.148438 7.097656 8.242188 7.285156 L 9.066406 8.957031 L 10.910156 9.222656 C 11.011719 9.238281 11.09375 9.308594 11.128906 9.40625 C 11.160156 9.507812 11.132812 9.613281 11.058594 9.6875 Z M 9.726562 10.984375 "/>
<path style=" stroke:none;fill-rule:nonzero;fill:rgb(61.960784%,62.352941%,49.803922%);fill-opacity:1;" d="M 7.621094 2.710938 L 6.148438 0 L 2.800781 0 L 6.265625 4.882812 Z M 7.621094 2.710938 "/>
</g>
</svg>
