<svg width="800" height="600" xmlns="http://www.w3.org/2000/svg">

 <g>
  <title>Layer 1</title>
  <g stroke="null">
   <path stroke="null" d="m207.10714,236.7347l171.78574,0c3.64921,0 6.60714,-3.65459 6.60714,-8.16326l0,-20.40816c0,-4.50867 -2.95794,-8.16326 -6.60714,-8.16326l-171.78574,0c-3.64921,0 -6.60714,3.65459 -6.60714,8.16326l0,20.40816c0,4.50867 2.95794,8.16326 6.60714,8.16326zm0,81.63265l171.78574,0c3.64921,0 6.60714,-3.65459 6.60714,-8.16326l0,-20.40816c0,-4.50867 -2.95794,-8.16326 -6.60714,-8.16326l-171.78574,0c-3.64921,0 -6.60714,3.65459 -6.60714,8.16326l0,20.40816c0,4.50867 2.95794,8.16326 6.60714,8.16326zm0,81.63265l171.78574,0c3.64921,0 6.60714,-3.65459 6.60714,-8.16326l0,-20.40816c0,-4.50867 -2.95794,-8.16326 -6.60714,-8.16326l-171.78574,0c-3.64921,0 -6.60714,3.65459 -6.60714,8.16326l0,20.40816c0,4.50867 2.95794,8.16326 6.60714,8.16326z" fill="#9c9c9c"/>
  </g>
 </g>
</svg>